<svg width="45" height="44" viewBox="0 0 45 44" fill="none" xmlns="http://www.w3.org/2000/svg">
<path d="M18.9098 12.5881C19.0506 12.5356 19.2021 12.5083 19.3552 12.5078C19.5083 12.5074 19.66 12.5337 19.8012 12.5853C19.9425 12.6368 20.0705 12.7126 20.1776 12.8081C20.2848 12.9036 20.3689 13.0168 20.425 13.1412C20.4812 13.2656 20.5082 13.3985 20.5045 13.5321C20.5007 13.6657 20.4664 13.7974 20.4034 13.9192C20.3404 14.041 20.2501 14.1506 20.1378 14.2415C20.0254 14.3323 19.8934 14.4025 19.7494 14.4481C18.9838 14.7114 18.3266 15.1699 17.8635 15.7638C17.4003 16.3577 17.1527 17.0596 17.1527 17.7781V19.5181C17.1527 19.7833 17.2734 20.0376 17.4882 20.2252C17.703 20.4127 17.9944 20.5181 18.2982 20.5181H27.4617C27.7655 20.5181 28.0569 20.4127 28.2717 20.2252C28.4865 20.0376 28.6072 19.7833 28.6072 19.5181V17.8711C28.6073 17.1295 28.3493 16.4055 27.8673 15.7949C27.3854 15.1843 26.7022 14.716 25.9085 14.4521C25.7636 14.4082 25.6304 14.3394 25.5165 14.2497C25.4027 14.16 25.3107 14.0513 25.2459 13.9299C25.1811 13.8086 25.1448 13.6772 25.1393 13.5434C25.1338 13.4096 25.1591 13.2763 25.2137 13.1512C25.2683 13.0261 25.3511 12.9119 25.4572 12.8152C25.5633 12.7186 25.6906 12.6416 25.8315 12.5887C25.9723 12.5358 26.1239 12.5081 26.2772 12.5074C26.4305 12.5066 26.5825 12.5326 26.7241 12.5841C27.9515 12.9922 29.0079 13.7164 29.7533 14.6606C30.4988 15.6047 30.898 16.7244 30.8981 17.8711V19.5181C30.8981 20.3137 30.536 21.0768 29.8916 21.6394C29.2471 22.202 28.3731 22.5181 27.4617 22.5181H18.2982C17.3868 22.5181 16.5127 22.202 15.8683 21.6394C15.2239 21.0768 14.8618 20.3137 14.8618 19.5181V17.7781C14.862 16.6582 15.2481 15.5643 15.9701 14.6387C16.6921 13.7131 17.7164 12.9985 18.9098 12.5881ZM22.8799 2.51807C24.0951 2.51807 25.2605 2.93949 26.1197 3.68964C26.979 4.43978 27.4617 5.4572 27.4617 6.51807V8.51807C27.4617 9.57893 26.979 10.5963 26.1197 11.3465C25.2605 12.0966 24.0951 12.5181 22.8799 12.5181C21.6648 12.5181 20.4994 12.0966 19.6401 11.3465C18.7809 10.5963 18.2982 9.57893 18.2982 8.51807V6.51807C18.2982 5.4572 18.7809 4.43978 19.6401 3.68964C20.4994 2.93949 21.6648 2.51807 22.8799 2.51807ZM22.8799 4.51807C22.2724 4.51807 21.6897 4.72878 21.26 5.10385C20.8304 5.47893 20.589 5.98763 20.589 6.51807V8.51807C20.589 9.0485 20.8304 9.55721 21.26 9.93228C21.6897 10.3074 22.2724 10.5181 22.8799 10.5181C23.4875 10.5181 24.0702 10.3074 24.4998 9.93228C24.9295 9.55721 25.1708 9.0485 25.1708 8.51807V6.51807C25.1708 5.98763 24.9295 5.47893 24.4998 5.10385C24.0702 4.72878 23.4875 4.51807 22.8799 4.51807Z" fill="#181725"/>
<path d="M9.15137 39.6865H6.29785V39.1709L6.98926 39.1123C7.02051 39.1123 7.0498 39.0928 7.07715 39.0537C7.10449 39.0107 7.11816 38.9717 7.11816 38.9365C7.11816 38.9209 7.11621 38.9111 7.1123 38.9072L6.28613 36.71H3.51465L2.71777 38.8721C2.71387 38.8799 2.71191 38.8916 2.71191 38.9072C2.71191 38.9541 2.73145 39.001 2.77051 39.0479C2.81348 39.0908 2.85254 39.1123 2.8877 39.1123L3.59668 39.1709V39.6865H1.18262V39.1709L1.87988 39.0244L4.6748 31.4424H5.57715L8.36035 38.8486C8.3916 38.9307 8.41895 38.9854 8.44238 39.0127C8.46582 39.04 8.52246 39.0615 8.6123 39.0771L9.15137 39.1709V39.6865ZM6.06934 36.1357L4.8916 32.9893L3.72559 36.1357H6.06934ZM14.3955 38.5557V39.2412C14.126 39.3857 13.8213 39.5205 13.4814 39.6455C13.1455 39.7705 12.7744 39.833 12.3682 39.833C11.8096 39.833 11.3232 39.7021 10.9092 39.4404C10.499 39.1787 10.1807 38.8232 9.9541 38.374C9.73145 37.9209 9.62012 37.4072 9.62012 36.833C9.62012 36.1611 9.75293 35.5967 10.0186 35.1396C10.2881 34.6826 10.6416 34.3389 11.0791 34.1084C11.5205 33.874 11.9971 33.7568 12.5088 33.7568C13.0361 33.7568 13.4775 33.8604 13.833 34.0674C14.1924 34.2705 14.3721 34.5674 14.3721 34.958C14.3721 35.1924 14.2979 35.3701 14.1494 35.4912C14.0049 35.6084 13.8428 35.667 13.6631 35.667C13.5303 35.667 13.415 35.6455 13.3174 35.6025C13.2197 35.5557 13.1338 35.5088 13.0596 35.4619V34.4189C12.876 34.3135 12.708 34.2607 12.5557 34.2607C12.2002 34.2607 11.8936 34.3662 11.6357 34.5771C11.3818 34.7842 11.1865 35.0693 11.0498 35.4326C10.9131 35.7959 10.8447 36.21 10.8447 36.6748C10.8447 37.1162 10.9189 37.5205 11.0674 37.8877C11.2158 38.251 11.4365 38.54 11.7295 38.7549C12.0264 38.9697 12.3936 39.0771 12.8311 39.0771C13.1084 39.0771 13.374 39.0322 13.6279 38.9424C13.8818 38.8525 14.1377 38.7236 14.3955 38.5557ZM19.9854 38.5557V39.2412C19.7158 39.3857 19.4111 39.5205 19.0713 39.6455C18.7354 39.7705 18.3643 39.833 17.958 39.833C17.3994 39.833 16.9131 39.7021 16.499 39.4404C16.0889 39.1787 15.7705 38.8232 15.5439 38.374C15.3213 37.9209 15.21 37.4072 15.21 36.833C15.21 36.1611 15.3428 35.5967 15.6084 35.1396C15.8779 34.6826 16.2314 34.3389 16.6689 34.1084C17.1104 33.874 17.5869 33.7568 18.0986 33.7568C18.626 33.7568 19.0674 33.8604 19.4229 34.0674C19.7822 34.2705 19.9619 34.5674 19.9619 34.958C19.9619 35.1924 19.8877 35.3701 19.7393 35.4912C19.5947 35.6084 19.4326 35.667 19.2529 35.667C19.1201 35.667 19.0049 35.6455 18.9072 35.6025C18.8096 35.5557 18.7236 35.5088 18.6494 35.4619V34.4189C18.4658 34.3135 18.2979 34.2607 18.1455 34.2607C17.79 34.2607 17.4834 34.3662 17.2256 34.5771C16.9717 34.7842 16.7764 35.0693 16.6396 35.4326C16.5029 35.7959 16.4346 36.21 16.4346 36.6748C16.4346 37.1162 16.5088 37.5205 16.6572 37.8877C16.8057 38.251 17.0264 38.54 17.3193 38.7549C17.6162 38.9697 17.9834 39.0771 18.4209 39.0771C18.6982 39.0771 18.9639 39.0322 19.2178 38.9424C19.4717 38.8525 19.7275 38.7236 19.9854 38.5557ZM26.5068 36.8037C26.5068 37.3701 26.3896 37.8838 26.1553 38.3447C25.9209 38.8018 25.5889 39.165 25.1592 39.4346C24.7334 39.7002 24.2275 39.833 23.6416 39.833C23.0596 39.833 22.5557 39.7002 22.1299 39.4346C21.7041 39.1689 21.376 38.8076 21.1455 38.3506C20.915 37.8936 20.7998 37.3779 20.7998 36.8037C20.7998 36.2334 20.915 35.7178 21.1455 35.2568C21.3799 34.7959 21.7119 34.4307 22.1416 34.1611C22.5752 33.8916 23.0869 33.7568 23.6768 33.7568C24.2744 33.7568 24.7842 33.8936 25.2061 34.167C25.6279 34.4404 25.9502 34.8076 26.1729 35.2686C26.3955 35.7295 26.5068 36.2412 26.5068 36.8037ZM25.2588 36.792C25.2588 36.3545 25.2002 35.9463 25.083 35.5674C24.9697 35.1885 24.7939 34.8818 24.5557 34.6475C24.3213 34.4131 24.0244 34.2959 23.665 34.2959C23.2939 34.2959 22.9893 34.4131 22.751 34.6475C22.5166 34.8818 22.3428 35.1885 22.2295 35.5674C22.1162 35.9463 22.0596 36.3545 22.0596 36.792C22.0596 37.2256 22.1162 37.6338 22.2295 38.0166C22.3467 38.3955 22.5225 38.7021 22.7568 38.9365C22.9951 39.1709 23.2939 39.2881 23.6533 39.2881C24.0205 39.2881 24.3213 39.1709 24.5557 38.9365C24.7939 38.7021 24.9697 38.3955 25.083 38.0166C25.2002 37.6377 25.2588 37.2295 25.2588 36.792ZM33.4912 39.6865H31.5869V39.001C31.4502 39.1064 31.2764 39.2236 31.0654 39.3525C30.8545 39.4814 30.6279 39.5928 30.3857 39.6865C30.1436 39.7842 29.9033 39.833 29.665 39.833C29.1494 39.833 28.7432 39.6787 28.4463 39.3701C28.1533 39.0576 28.0068 38.5635 28.0068 37.8877V34.6357H27.1689V34.2256L28.6455 33.7568H29.126V37.6592C29.126 38.085 29.2119 38.417 29.3838 38.6553C29.5596 38.8936 29.8604 39.0127 30.2861 39.0127C30.5322 39.0127 30.7744 38.9717 31.0127 38.8896C31.251 38.8037 31.4424 38.7256 31.5869 38.6553V34.6357H30.7432V34.2256L32.208 33.7568H32.7002V38.9189C32.7002 38.9932 32.7256 39.0537 32.7764 39.1006C32.8311 39.1475 32.8936 39.1748 32.9639 39.1826L33.4912 39.2178V39.6865ZM40.3115 39.6865H37.6631V39.2178L38.167 39.1826C38.2373 39.1748 38.2959 39.1475 38.3428 39.1006C38.3936 39.0537 38.4189 38.9932 38.4189 38.9189V35.7959C38.4189 35.417 38.3311 35.1299 38.1553 34.9346C37.9795 34.7354 37.6826 34.6357 37.2646 34.6357C37.0381 34.6357 36.8115 34.6689 36.585 34.7354C36.3623 34.7979 36.1494 34.8799 35.9463 34.9814V38.9189C35.9463 39.083 36.0303 39.1709 36.1982 39.1826L36.7021 39.2178V39.6865H33.9893V39.2178L34.5752 39.1826C34.7432 39.1709 34.8271 39.083 34.8271 38.9189V34.7529H33.9893V34.3604L35.4541 33.9033H35.9463V34.501C36.2822 34.3096 36.626 34.1377 36.9775 33.9854C37.333 33.833 37.6494 33.7568 37.9268 33.7568C38.4502 33.7568 38.8486 33.9209 39.1221 34.249C39.3955 34.5732 39.5322 35.0264 39.5322 35.6084V38.9189C39.5322 38.9932 39.5557 39.0537 39.6025 39.1006C39.6533 39.1475 39.7139 39.1748 39.7842 39.1826L40.3115 39.2178V39.6865ZM44.5537 38.9541V39.4346C44.5537 39.4346 44.4775 39.4678 44.3252 39.5342C44.1768 39.6006 43.9795 39.667 43.7334 39.7334C43.4912 39.7998 43.2256 39.833 42.9365 39.833C42.4873 39.833 42.1592 39.7275 41.9521 39.5166C41.749 39.3018 41.6475 38.958 41.6475 38.4854V34.501H40.8799V34.1084L41.7002 33.7217L42.2393 32.4502H42.7666V33.9033H44.46V34.501H42.7666V37.8525C42.7666 38.3291 42.8467 38.667 43.0068 38.8662C43.167 39.0615 43.4072 39.1592 43.7275 39.1592C43.9619 39.1592 44.1572 39.126 44.3135 39.0596C44.4736 38.9893 44.5537 38.9541 44.5537 38.9541Z" fill="#181725"/>
</svg>
