<svg width="48" height="48" viewBox="0 0 48 48" fill="none" xmlns="http://www.w3.org/2000/svg">
<path fill-rule="evenodd" clip-rule="evenodd" d="M34.5876 25.0886C31.8885 26.1708 28.9751 26.8383 25.9279 27.0112C25.4023 27.041 24.8728 27.0562 24.3398 27.0562C23.8067 27.0562 23.2772 27.041 22.7517 27.0112C19.7037 26.8382 16.7896 26.1705 14.09 25.0878C8.42467 22.8158 3.70393 18.7165 0.673096 13.5281C5.39717 5.44098 14.2268 0 24.3398 0C34.4527 0 43.2824 5.44098 48.0064 13.5281C44.9753 18.7171 40.2538 22.8167 34.5876 25.0886Z" fill="white"/>
<path d="M14.0897 27.1939C13.437 26.9321 12.7969 26.6462 12.1704 26.337C10.1345 27.7573 8.4134 29.5261 7.11743 31.5442C9.32024 34.9745 12.7513 37.6846 16.8689 39.1867C18.8309 39.9025 20.9489 40.344 23.1642 40.4583H25.4726C27.6873 40.344 31.58 42.5168 25.9275 47.9999C30.0457 46.4979 39.3163 34.9749 41.5193 31.5442C40.2271 29.5319 38.5121 27.7674 36.4838 26.3492C35.8646 26.6539 35.232 26.9361 34.5873 27.1947C31.8882 28.2769 28.9747 28.9443 25.9275 29.1173C25.402 29.1471 24.8725 29.1622 24.3394 29.1622C23.8063 29.1622 23.2768 29.1471 22.7513 29.1173C19.7034 28.9443 16.7893 28.2765 14.0897 27.1939Z" fill="white"/>
<rect x="12.9277" y="10.0675" width="22.8741" height="8.08988" rx="4.04494" fill="#162550"/>
<ellipse cx="30.6728" cy="14.0675" rx="1.49771" ry="1.48315" fill="#04FED1"/>
<ellipse cx="24.3183" cy="34.0225" rx="1.49771" ry="1.48315" fill="#162550"/>
<ellipse cx="18.3285" cy="14.0675" rx="1.49771" ry="1.48315" fill="#04FED1"/>
<ellipse cx="18.3285" cy="34.0225" rx="1.49771" ry="1.48315" fill="#162550"/>
<ellipse cx="30.31" cy="34.0225" rx="1.49771" ry="1.48315" fill="#162550"/>
</svg>
