<svg width="15" height="15" viewBox="0 0 15 15" fill="none" xmlns="http://www.w3.org/2000/svg">
<g clip-path="url(#clip0_1470_2382)">
<path d="M7.49996 15.0002C11.412 15.0002 14.5833 11.8288 14.5833 7.91683C14.5833 4.00481 11.412 0.833496 7.49996 0.833496C3.58794 0.833496 0.416626 4.00481 0.416626 7.91683C0.416626 11.8288 3.58794 15.0002 7.49996 15.0002Z" fill="#F4900C"/>
<path d="M7.49996 14.1667C11.412 14.1667 14.5833 10.9954 14.5833 7.08333C14.5833 3.17132 11.412 0 7.49996 0C3.58794 0 0.416626 3.17132 0.416626 7.08333C0.416626 10.9954 3.58794 14.1667 7.49996 14.1667Z" fill="#FFCC4D"/>
<path d="M7.49996 13.3332C10.7216 13.3332 13.3333 10.7215 13.3333 7.49984C13.3333 4.27818 10.7216 1.6665 7.49996 1.6665C4.2783 1.6665 1.66663 4.27818 1.66663 7.49984C1.66663 10.7215 4.2783 13.3332 7.49996 13.3332Z" fill="#FFE8B6"/>
<path d="M7.49996 12.9167C10.7216 12.9167 13.3333 10.305 13.3333 7.08333C13.3333 3.86167 10.7216 1.25 7.49996 1.25C4.2783 1.25 1.66663 3.86167 1.66663 7.08333C1.66663 10.305 4.2783 12.9167 7.49996 12.9167Z" fill="#FFAC33"/>
<path d="M3.9762 4.52316C3.9762 4.29607 4.19911 4.20524 4.19911 4.20524L7.48161 2.66357L10.7954 4.20524C10.7954 4.20524 11.0237 4.25607 11.0237 4.52482V4.79191H3.9762V4.52316Z" fill="#FFE8B6"/>
<path d="M10.8038 5.34813C10.8038 5.1048 10.5934 4.90771 10.3342 4.90771H4.63714C4.37756 4.90771 4.19672 5.1048 4.19672 5.34813C4.19672 5.51355 4.28172 5.65605 4.41714 5.73146V6.00896H5.29797V5.78855H6.17881V6.00896H7.05964V5.78855H7.94047V6.00896H8.8213V5.78855H9.70214V6.00896H10.5834V5.72021C10.7155 5.64188 10.8038 5.5048 10.8038 5.34813ZM11.4642 9.9998C11.4642 10.0874 11.4294 10.1715 11.3674 10.2334C11.3055 10.2954 11.2214 10.3302 11.1338 10.3302H3.86631C3.77867 10.3302 3.69463 10.2954 3.63267 10.2334C3.5707 10.1715 3.53589 10.0874 3.53589 9.9998C3.53589 9.91217 3.5707 9.82812 3.63267 9.76616C3.69463 9.70419 3.77867 9.66938 3.86631 9.66938H11.1342C11.3163 9.66938 11.4642 9.8173 11.4642 9.9998Z" fill="#F4900C"/>
<path d="M11.0238 5.08321C11.0237 5.14163 11.0004 5.19763 10.9591 5.23895C10.9178 5.28026 10.8618 5.30352 10.8034 5.30363H4.19629C4.14017 5.30017 4.08749 5.27545 4.04897 5.23449C4.01046 5.19354 3.98901 5.13943 3.98901 5.08321C3.98901 5.02699 4.01046 4.97288 4.04897 4.93193C4.08749 4.89097 4.14017 4.86624 4.19629 4.86279L10.8034 4.86404C10.8322 4.86393 10.8609 4.86952 10.8876 4.88048C10.9143 4.89144 10.9386 4.90756 10.959 4.92792C10.9795 4.94827 10.9958 4.97247 11.0069 4.99911C11.018 5.02576 11.0237 5.05434 11.0238 5.08321ZM5.07754 5.33904H9.92295V5.83321H5.07754V5.33904Z" fill="#F4900C"/>
<path d="M5.29751 8.67851C5.29751 8.92184 5.16584 9.11893 5.00376 9.11893H4.71001C4.54793 9.11893 4.41626 8.92184 4.41626 8.67851V5.33934C4.41626 5.09601 4.54793 4.89893 4.71001 4.89893H5.00376C5.16584 4.89893 5.29751 5.09601 5.29751 5.33934V8.67851ZM10.5833 8.67851C10.5833 8.92184 10.4521 9.11893 10.2896 9.11893H9.99584C9.83376 9.11893 9.70209 8.92184 9.70209 8.67851V5.33934C9.70209 5.09601 9.83334 4.89893 9.99584 4.89893H10.2896C10.4517 4.89893 10.5833 5.09601 10.5833 5.33934V8.67851ZM7.05959 8.67851C7.05959 8.92184 6.92793 9.11893 6.76584 9.11893H6.47209C6.31001 9.11893 6.17834 8.92184 6.17834 8.67851V5.33934C6.17834 5.09601 6.31001 4.89893 6.47209 4.89893H6.76584C6.92793 4.89893 7.05959 5.09601 7.05959 5.33934V8.67851ZM8.82126 8.67851C8.82126 8.92184 8.68959 9.11893 8.52751 9.11893H8.23418C8.07209 9.11893 7.94043 8.92184 7.94043 8.67851V5.33934C7.94043 5.09601 8.07209 4.89893 8.23418 4.89893H8.52751C8.68959 4.89893 8.82126 5.09601 8.82126 5.33934V8.67851Z" fill="#FFD983"/>
<path d="M10.8037 8.89891C10.8037 9.14225 10.6067 9.33933 10.3633 9.33933H4.63707C4.52027 9.33933 4.40824 9.29293 4.32565 9.21033C4.24306 9.12774 4.19666 9.01572 4.19666 8.89891C4.19666 8.78211 4.24306 8.67009 4.32565 8.58749C4.40824 8.5049 4.52027 8.4585 4.63707 8.4585H10.3633C10.6062 8.4585 10.8037 8.65558 10.8037 8.89891Z" fill="#FFCC4D"/>
<path d="M11.2442 9.33934C11.2442 9.58268 11.0471 9.77976 10.8038 9.77976H4.19628C4.07947 9.77976 3.96745 9.73336 3.88485 9.65076C3.80226 9.56817 3.75586 9.45615 3.75586 9.33934C3.75586 9.22254 3.80226 9.11051 3.88485 9.02792C3.96745 8.94533 4.07947 8.89893 4.19628 8.89893H10.8034C11.0467 8.89893 11.2442 9.09601 11.2442 9.33934Z" fill="#FFD983"/>
<path d="M11.4642 9.66977C11.4642 9.7574 11.4294 9.84145 11.3674 9.90341C11.3055 9.96538 11.2214 10.0002 11.1338 10.0002H3.86631C3.82291 10.0002 3.77995 9.99164 3.73986 9.97504C3.69977 9.95843 3.66335 9.93409 3.63267 9.90341C3.60198 9.87273 3.57765 9.83631 3.56104 9.79622C3.54444 9.75613 3.53589 9.71316 3.53589 9.66977C3.53589 9.62638 3.54444 9.58342 3.56104 9.54333C3.57765 9.50324 3.60198 9.46681 3.63267 9.43613C3.66335 9.40545 3.69977 9.38111 3.73986 9.36451C3.77995 9.3479 3.82291 9.33936 3.86631 9.33936H11.1342C11.3163 9.33936 11.4642 9.48727 11.4642 9.66977Z" fill="#FFD983"/>
<path d="M10.8037 5.11913C10.8037 4.87579 10.5933 4.67871 10.3342 4.67871H4.63707C4.37749 4.67871 4.19666 4.87579 4.19666 5.11913C4.19666 5.28454 4.28166 5.42704 4.41707 5.50246V5.77996H5.29791V5.55954H6.17874V5.77996H7.05957V5.55954H7.94041V5.77996H8.82124V5.55954H9.70207V5.77996H10.5833V5.49121C10.7154 5.41288 10.8037 5.27579 10.8037 5.11913Z" fill="#FFCC4D"/>
<path d="M3.9762 4.77609C3.9762 4.549 4.19911 4.45817 4.19911 4.45817L7.48161 2.9165L10.7954 4.45817C10.7954 4.45817 11.0237 4.509 11.0237 4.77775V4.899H3.9762V4.77609Z" fill="#FFD983"/>
<path d="M7.5 3.47607C7.5 3.47607 5.22708 4.54732 5.00041 4.64399C4.77333 4.74024 4.84916 4.89857 5.00083 4.89857H9.98833C10.2225 4.89857 10.1671 4.71982 9.98125 4.62316C9.79541 4.52691 7.5 3.47607 7.5 3.47607Z" fill="#FFAC33"/>
<path d="M11.0238 4.89864C11.0237 4.95706 11.0004 5.01306 10.9591 5.05438C10.9178 5.09569 10.8618 5.11895 10.8034 5.11906H4.19629C4.14017 5.1156 4.08749 5.09088 4.04897 5.04992C4.01046 5.00897 3.98901 4.95486 3.98901 4.89864C3.98901 4.84242 4.01046 4.78831 4.04897 4.74736C4.08749 4.7064 4.14017 4.68167 4.19629 4.67822L10.8034 4.67947C10.8322 4.67936 10.8609 4.68495 10.8876 4.69591C10.9143 4.70687 10.9386 4.72299 10.959 4.74334C10.9795 4.7637 10.9958 4.7879 11.0069 4.81454C11.018 4.84119 11.0237 4.86977 11.0238 4.89864Z" fill="#FFD983"/>
</g>
<defs>
<clipPath id="clip0_1470_2382">
<rect width="15" height="15" fill="white"/>
</clipPath>
</defs>
</svg>
