<svg width="52" height="43" viewBox="0 0 52 43" fill="none" xmlns="http://www.w3.org/2000/svg">
<g clip-path="url(#clip0_2879_1040)">
<path d="M17.9791 11.0097L25.8032 18.8338L33.6273 11.0097C34.3191 10.3179 34.7077 9.37973 34.7077 8.40145C34.7077 7.42317 34.3191 6.48496 33.6273 5.79321C33.2848 5.4507 32.8782 5.179 32.4307 4.99363C31.9831 4.80826 31.5035 4.71285 31.0191 4.71285C30.0408 4.71285 29.1026 5.10147 28.4109 5.79321L25.8032 8.40084L23.1956 5.79444C22.5021 5.11198 21.567 4.7312 20.594 4.73504C19.621 4.73889 18.689 5.12705 18.0009 5.81498C17.3128 6.50291 16.9244 7.43487 16.9204 8.40786C16.9163 9.38084 17.2968 10.316 17.9791 11.0097ZM24.934 4.05357L25.8032 4.92278L26.6724 4.05357C27.2424 3.47865 27.9202 3.02196 28.6671 2.70971C29.414 2.39747 30.2152 2.23582 31.0247 2.23405C31.8342 2.23227 32.6361 2.39041 33.3843 2.69938C34.1326 3.00836 34.8124 3.46207 35.3848 4.03449C35.9573 4.60691 36.411 5.28675 36.7199 6.03499C37.0289 6.78323 37.1871 7.58513 37.1853 8.39465C37.1835 9.20417 37.0219 10.0054 36.7096 10.7522C36.3974 11.4991 35.9407 12.177 35.3658 12.7469L26.6737 21.4402C26.5595 21.5545 26.4239 21.6452 26.2747 21.707C26.1254 21.7689 25.9654 21.8008 25.8039 21.8008C25.6423 21.8008 25.4823 21.7689 25.3331 21.707C25.1838 21.6452 25.0482 21.5545 24.934 21.4402L16.2407 12.7481C15.658 12.18 15.1938 11.5019 14.8752 10.7531C14.5566 10.0042 14.3899 9.19955 14.3846 8.38576C14.3794 7.57196 14.5359 6.76523 14.8449 6.01237C15.1539 5.2595 15.6093 4.57548 16.1847 3.99999C16.7601 3.42449 17.444 2.96899 18.1969 2.65988C18.9497 2.35078 19.7564 2.19424 20.5702 2.19934C21.384 2.20444 22.1887 2.37108 22.9376 2.68959C23.6865 3.0081 24.3646 3.47214 24.9328 4.0548L24.934 4.05357Z" fill="#181725"/>
</g>
<path d="M6.61304 32.54H5.90405L5.73413 31.4385C5.72241 31.3799 5.69897 31.3291 5.66382 31.2861C5.62866 31.2432 5.58374 31.2217 5.52905 31.2217H2.97437V34.3447H4.80835C4.86304 34.3447 4.91187 34.3193 4.95483 34.2686C4.9978 34.2139 5.02124 34.167 5.02515 34.1279L5.13647 33.2842H5.73413V35.9854H5.13647L5.02515 35.1475C5.02124 35.1045 4.99585 35.0576 4.94897 35.0068C4.90601 34.9561 4.85913 34.9307 4.80835 34.9307H2.97437V37.8604C2.97437 37.9189 2.9939 37.9756 3.03296 38.0303C3.07593 38.085 3.14038 38.1162 3.22632 38.124L4.02905 38.1709V38.6865H0.876709V38.1709L1.50952 38.124C1.59546 38.1162 1.65796 38.085 1.69702 38.0303C1.73999 37.9756 1.76147 37.9189 1.76147 37.8604V31.4619C1.76147 31.4033 1.73999 31.3467 1.69702 31.292C1.65796 31.2334 1.59546 31.2021 1.50952 31.1982L0.7771 31.1514V30.6357H6.61304V32.54ZM12.8767 38.6865H11.1013L10.9431 37.9775C10.9431 37.9775 10.8826 38.0205 10.7615 38.1064C10.6443 38.1924 10.488 38.292 10.2927 38.4053C10.0974 38.5186 9.88062 38.6182 9.64233 38.7041C9.40796 38.79 9.17358 38.833 8.93921 38.833C8.50562 38.833 8.13647 38.6885 7.83179 38.3994C7.53101 38.1104 7.38062 37.7139 7.38062 37.21C7.38062 36.9873 7.41968 36.7803 7.4978 36.5889C7.57983 36.3975 7.73999 36.2158 7.97827 36.0439C8.22046 35.8682 8.57788 35.6982 9.05054 35.5342C9.5271 35.3662 10.158 35.1963 10.9431 35.0244V34.5088C10.9431 33.7197 10.5701 33.3252 9.82397 33.3252C9.61694 33.3252 9.43726 33.3447 9.28491 33.3838C9.13647 33.4229 9.03296 33.4541 8.97437 33.4775V34.5205H8.10132C7.99194 34.5205 7.89038 34.501 7.79663 34.4619C7.70288 34.4189 7.65601 34.3232 7.65601 34.1748C7.65601 33.8467 7.78101 33.5791 8.03101 33.3721C8.28101 33.1611 8.59741 33.0068 8.98022 32.9092C9.36694 32.8076 9.75757 32.7568 10.1521 32.7568C10.6482 32.7568 11.033 32.835 11.3064 32.9912C11.5798 33.1436 11.7712 33.3564 11.8806 33.6299C11.99 33.8994 12.0447 34.208 12.0447 34.5557V37.9189C12.0447 37.9932 12.0681 38.0537 12.115 38.1006C12.1658 38.1475 12.2263 38.1748 12.2966 38.1826L12.8767 38.2178V38.6865ZM10.9431 37.5557V35.4814C10.4041 35.6143 9.97437 35.749 9.65405 35.8857C9.33765 36.0186 9.10132 36.1533 8.94507 36.29C8.78882 36.4229 8.6853 36.5596 8.63452 36.7002C8.58765 36.8369 8.56421 36.9795 8.56421 37.1279C8.56421 37.374 8.64233 37.6025 8.79858 37.8135C8.95874 38.0205 9.1814 38.124 9.46655 38.124C9.62671 38.124 9.79272 38.0967 9.9646 38.042C10.1365 37.9834 10.2966 37.917 10.4451 37.8428C10.5935 37.7646 10.7126 37.6982 10.8025 37.6436C10.8962 37.585 10.9431 37.5557 10.9431 37.5557ZM19.3044 33.3721L18.6658 33.4424L16.5681 38.6865H15.7888L13.8552 33.4424L13.1931 33.3721V32.9033H15.8474V33.3721L15.2732 33.4072C15.1443 33.4189 15.0798 33.4834 15.0798 33.6006C15.0798 33.6162 15.0837 33.6396 15.0916 33.6709L16.4333 37.4268L17.9099 33.6709C17.9216 33.6475 17.9275 33.6221 17.9275 33.5947C17.9275 33.4775 17.8669 33.415 17.7458 33.4072L17.2068 33.3721V32.9033H19.3044V33.3721ZM25.5447 35.8037C25.5447 36.3701 25.4275 36.8838 25.1931 37.3447C24.9587 37.8018 24.6267 38.165 24.197 38.4346C23.7712 38.7002 23.2654 38.833 22.6794 38.833C22.0974 38.833 21.5935 38.7002 21.1677 38.4346C20.7419 38.1689 20.4138 37.8076 20.1833 37.3506C19.9529 36.8936 19.8376 36.3779 19.8376 35.8037C19.8376 35.2334 19.9529 34.7178 20.1833 34.2568C20.4177 33.7959 20.7498 33.4307 21.1794 33.1611C21.613 32.8916 22.1248 32.7568 22.7146 32.7568C23.3123 32.7568 23.822 32.8936 24.2439 33.167C24.6658 33.4404 24.988 33.8076 25.2107 34.2686C25.4333 34.7295 25.5447 35.2412 25.5447 35.8037ZM24.2966 35.792C24.2966 35.3545 24.238 34.9463 24.1208 34.5674C24.0076 34.1885 23.8318 33.8818 23.5935 33.6475C23.3591 33.4131 23.0623 33.2959 22.7029 33.2959C22.3318 33.2959 22.0271 33.4131 21.7888 33.6475C21.5544 33.8818 21.3806 34.1885 21.2673 34.5674C21.1541 34.9463 21.0974 35.3545 21.0974 35.792C21.0974 36.2256 21.1541 36.6338 21.2673 37.0166C21.3845 37.3955 21.5603 37.7021 21.7947 37.9365C22.033 38.1709 22.3318 38.2881 22.6912 38.2881C23.0583 38.2881 23.3591 38.1709 23.5935 37.9365C23.8318 37.7021 24.0076 37.3955 24.1208 37.0166C24.238 36.6377 24.2966 36.2295 24.2966 35.792ZM32.5291 38.6865H30.6248V38.001C30.488 38.1064 30.3142 38.2236 30.1033 38.3525C29.8923 38.4814 29.6658 38.5928 29.4236 38.6865C29.1814 38.7842 28.9412 38.833 28.7029 38.833C28.1873 38.833 27.781 38.6787 27.4841 38.3701C27.1912 38.0576 27.0447 37.5635 27.0447 36.8877V33.6357H26.2068V33.2256L27.6833 32.7568H28.1638V36.6592C28.1638 37.085 28.2498 37.417 28.4216 37.6553C28.5974 37.8936 28.8982 38.0127 29.324 38.0127C29.5701 38.0127 29.8123 37.9717 30.0505 37.8896C30.2888 37.8037 30.4802 37.7256 30.6248 37.6553V33.6357H29.781V33.2256L31.2458 32.7568H31.738V37.9189C31.738 37.9932 31.7634 38.0537 31.8142 38.1006C31.8689 38.1475 31.9314 38.1748 32.0017 38.1826L32.5291 38.2178V38.6865ZM37.3572 34.1279H36.8884C36.8142 34.0381 36.7244 33.9619 36.6189 33.8994C36.5173 33.833 36.3923 33.7998 36.2439 33.7998C36.0525 33.7998 35.8552 33.8662 35.6521 33.999C35.4529 34.1318 35.2498 34.3135 35.0427 34.5439V37.9189C35.0427 38.0869 35.1267 38.1748 35.2947 38.1826L36.0857 38.2178V38.6865H33.0857V38.2295L33.6775 38.1826C33.7478 38.1748 33.8064 38.1475 33.8533 38.1006C33.9041 38.0537 33.9294 37.9932 33.9294 37.9189V33.7529H33.0623V33.3604L34.5505 32.9033H35.0427V33.9697C35.1599 33.8408 35.3064 33.6807 35.4822 33.4893C35.658 33.2979 35.8455 33.1279 36.0447 32.9795C36.2439 32.8311 36.4373 32.7568 36.6248 32.7568C36.7498 32.7568 36.8845 32.7764 37.0291 32.8154C37.1736 32.8545 37.283 32.8955 37.3572 32.9385V34.1279ZM40.0994 30.9229C40.0994 31.126 40.0291 31.3018 39.8884 31.4502C39.7478 31.5947 39.5759 31.667 39.3728 31.667C39.1697 31.667 38.9939 31.5947 38.8455 31.4502C38.7009 31.3018 38.6287 31.126 38.6287 30.9229C38.6287 30.7158 38.7009 30.542 38.8455 30.4014C38.9939 30.2607 39.1697 30.1904 39.3728 30.1904C39.5759 30.1904 39.7478 30.2607 39.8884 30.4014C40.0291 30.542 40.0994 30.7158 40.0994 30.9229ZM40.7146 38.6865H37.8962V38.2178L38.4822 38.1826C38.6501 38.1709 38.7341 38.083 38.7341 37.9189V33.6357H37.908V33.2139L39.3728 32.7568H39.8474V37.9189C39.8474 37.9932 39.8708 38.0537 39.9177 38.1006C39.9685 38.1475 40.0291 38.1748 40.0994 38.1826L40.7146 38.2178V38.6865ZM45.1267 37.9541V38.4346C45.1267 38.4346 45.0505 38.4678 44.8982 38.5342C44.7498 38.6006 44.5525 38.667 44.3064 38.7334C44.0642 38.7998 43.7986 38.833 43.5095 38.833C43.0603 38.833 42.7322 38.7275 42.5251 38.5166C42.322 38.3018 42.2205 37.958 42.2205 37.4854V33.501H41.4529V33.1084L42.2732 32.7217L42.8123 31.4502H43.3396V32.9033H45.033V33.501H43.3396V36.8525C43.3396 37.3291 43.4197 37.667 43.5798 37.8662C43.74 38.0615 43.9802 38.1592 44.3005 38.1592C44.5349 38.1592 44.7302 38.126 44.8865 38.0596C45.0466 37.9893 45.1267 37.9541 45.1267 37.9541ZM50.6814 38.0889C50.3455 38.2959 49.9822 38.4717 49.5916 38.6162C49.2048 38.7607 48.8083 38.833 48.4021 38.833C47.9177 38.833 47.4626 38.7256 47.0369 38.5107C46.615 38.292 46.2732 37.9619 46.0115 37.5205C45.7498 37.0791 45.6189 36.5244 45.6189 35.8564C45.6189 35.2314 45.74 34.6865 45.9822 34.2217C46.2244 33.7568 46.5583 33.3975 46.9841 33.1436C47.4099 32.8857 47.8943 32.7568 48.4373 32.7568C49.1833 32.7568 49.7439 32.9893 50.1189 33.4541C50.4939 33.915 50.6814 34.5029 50.6814 35.2178C50.6814 35.2568 50.6814 35.3096 50.6814 35.376C50.6814 35.4385 50.6775 35.4971 50.6697 35.5518H46.7791C46.7791 35.8564 46.8103 36.1611 46.8728 36.4658C46.9392 36.7666 47.0486 37.04 47.2009 37.2861C47.3533 37.5322 47.5583 37.7295 47.8162 37.8779C48.074 38.0264 48.3962 38.1006 48.783 38.1006C49.1267 38.1006 49.4607 38.0225 49.7849 37.8662C50.113 37.7061 50.4119 37.5361 50.6814 37.3564V38.0889ZM49.4802 35.0127V34.749C49.4802 34.3545 49.3845 34.0225 49.1931 33.7529C49.0056 33.4834 48.7126 33.3486 48.3142 33.3486C47.9197 33.3486 47.5837 33.4971 47.3064 33.7939C47.0291 34.0908 46.8748 34.4971 46.8435 35.0127H49.4802Z" fill="#181725"/>
<defs>
<clipPath id="clip0_2879_1040">
<rect width="24" height="24" fill="white" transform="translate(13.2849)"/>
</clipPath>
</defs>
</svg>
