<svg width="17" height="20" viewBox="0 0 17 20" fill="none" xmlns="http://www.w3.org/2000/svg">
<path d="M5.83331 0.547466C4.0796 1.24888 2.56719 2.58019 1.51825 4.34584C0.469313 6.11149 -0.060876 8.21842 0.00556226 10.3572C0.0720006 12.4959 0.731565 14.5537 1.88737 16.2283C3.04319 17.9029 4.63432 19.1061 6.42706 19.6611C7.88048 20.0934 9.40324 20.1124 10.8644 19.7164C12.1881 19.3736 13.4119 18.6403 14.416 17.5884C15.461 16.4602 16.2195 15.0249 16.61 13.4369C17.0344 11.71 17.1099 9.89389 16.8307 8.12808H8.66906V12.0314H13.3958C13.3013 12.654 13.0989 13.2482 12.8006 13.7784C12.5023 14.3087 12.1143 14.7641 11.6598 15.1174C11.0826 15.5576 10.4319 15.8538 9.7496 15.9869C9.06527 16.1336 8.36335 16.1336 7.67901 15.9869C6.98542 15.8216 6.32929 15.4916 5.75241 15.0178C4.82565 14.2615 4.12978 13.187 3.7641 11.9476C3.39224 10.6851 3.39224 9.31633 3.7641 8.05378C4.0244 7.16879 4.45471 6.36302 5.0229 5.69659C5.67314 4.91995 6.49636 4.3648 7.40224 4.09206C8.30812 3.81931 9.26165 3.83951 10.1582 4.15043C10.8586 4.39831 11.4991 4.8314 12.0286 5.41519C12.5616 4.80389 13.0936 4.19101 13.6248 3.57655C13.899 3.24613 14.1979 2.93153 14.4681 2.5932C13.6598 1.72602 12.7111 1.05124 11.6762 0.607542C9.7917 -0.181364 7.72972 -0.202565 5.83331 0.547466Z" fill="white"/>
<path d="M5.83741 0.548234C7.73366 -0.202307 9.79564 -0.181664 11.6803 0.606729C12.7153 1.05345 13.6637 1.73147 14.4708 2.60188C14.1965 2.9402 13.9072 3.25639 13.6275 3.58522C13.0954 4.19758 12.5638 4.80782 12.0327 5.41595C11.5032 4.83217 10.8627 4.39908 10.1623 4.1512C9.26605 3.83919 8.31254 3.81782 7.40642 4.08945C6.5003 4.36108 5.67658 4.91521 5.02563 5.69104C4.45743 6.35746 4.02712 7.16324 3.76682 8.04822L0.924225 5.51081C1.9417 3.18455 3.7034 1.40514 5.83741 0.548234Z" fill="#E33629"/>
<path d="M0.170031 8.02456C0.322817 7.15156 0.576474 6.30612 0.924218 5.51086L3.76682 8.0546C3.39495 9.31715 3.39495 10.6859 3.76682 11.9485C2.81974 12.7916 1.87221 13.639 0.924218 14.4906C0.0536814 12.4928 -0.211817 10.2165 0.170031 8.02456Z" fill="#F8BD00"/>
<path d="M8.67316 8.12732H16.8348C17.114 9.89313 17.0385 11.7092 16.6141 13.4361C16.2236 15.0241 15.4651 16.4594 14.4201 17.5877C13.5027 16.7624 12.5812 15.9435 11.6639 15.1182C12.1187 14.7646 12.5069 14.3086 12.8052 13.7778C13.1035 13.247 13.3057 12.6522 13.3999 12.0291H8.67316C8.67178 10.7295 8.67316 9.42843 8.67316 8.12732Z" fill="#587DBD"/>
<path d="M0.922852 14.4905C1.87084 13.6474 2.81837 12.8 3.76545 11.9484C4.13186 13.1881 4.82872 14.2627 5.7565 15.0186C6.33518 15.4901 6.99273 15.8175 7.68722 15.9798C8.37155 16.1265 9.07348 16.1265 9.75781 15.9798C10.4401 15.8466 11.0908 15.5504 11.668 15.1102C12.5853 15.9355 13.5068 16.7544 14.4242 17.5797C13.4203 18.6322 12.1965 19.366 10.8726 19.7092C9.41144 20.1052 7.88869 20.0863 6.43527 19.6539C5.28576 19.3 4.21203 18.6762 3.2814 17.8216C2.29638 16.9199 1.49186 15.7837 0.922852 14.4905Z" fill="#319F43"/>
</svg>
