<svg width="33" height="44" viewBox="0 0 33 44" fill="none" xmlns="http://www.w3.org/2000/svg">
<path d="M10 2.56787H24C24.6844 2.56787 25.3443 2.80594 25.8691 3.23584L26.0859 3.43213C26.6392 3.98536 26.9502 4.73568 26.9502 5.51807V7.51807C26.9502 8.38529 26.5763 9.16569 25.9795 9.70557L25.9629 9.72119V20.4829C25.9629 21.0001 25.7573 21.4961 25.3916 21.8618C25.0259 22.2275 24.5298 22.4331 24.0127 22.4331H16.373V22.4321L16.3633 22.4341C16.2435 22.4567 16.1219 22.4682 16 22.4683H14L13.8174 22.4595C13.7568 22.4538 13.6965 22.4454 13.6367 22.4341L13.627 22.4829L13.6367 22.4331H10.0107C9.49366 22.433 8.99747 22.2275 8.63184 21.8618C8.26627 21.4961 8.06055 21 8.06055 20.4829V9.64209L8.00781 9.69385C7.71177 9.42322 7.47323 9.09512 7.30859 8.729C7.13746 8.34832 7.04922 7.93545 7.0498 7.51807V5.51807C7.0498 4.83366 7.28788 4.1738 7.71777 3.64893L7.91406 3.43213C8.46729 2.8789 9.21761 2.56787 10 2.56787ZM19.9668 9.71729C19.4265 10.2019 18.7257 10.4693 18 10.4683H16C15.2448 10.4683 14.5543 10.1843 14.0332 9.71729L14 9.68701L13.9668 9.71729C13.4265 10.2019 12.7257 10.4693 12 10.4683H9.95996V20.5327H12.0498V15.5181C12.0498 15.0009 12.2554 14.5049 12.6211 14.1392C12.9868 13.7735 13.4828 13.5679 14 13.5679H16C16.5172 13.5679 17.0132 13.7735 17.3789 14.1392C17.7446 14.5049 17.9502 15.0009 17.9502 15.5181V20.5327H24.0635V10.4683H22C21.2448 10.4683 20.5543 10.1843 20.0332 9.71729L20 9.68701L19.9668 9.71729ZM13.9502 20.5327H16V20.4839H16.0498V15.4683H13.9502V20.5327ZM21 13.5679H22C22.252 13.5679 22.4937 13.668 22.6719 13.8462C22.85 14.0244 22.9502 14.2661 22.9502 14.5181V17.5181C22.9502 17.77 22.85 18.0118 22.6719 18.1899C22.4937 18.3681 22.252 18.4683 22 18.4683H21C20.748 18.4683 20.5063 18.3681 20.3281 18.1899C20.15 18.0118 20.0498 17.77 20.0498 17.5181V14.5181C20.0498 14.2661 20.15 14.0244 20.3281 13.8462C20.5063 13.668 20.748 13.5679 21 13.5679ZM10 4.46826C9.72152 4.46826 9.45473 4.57897 9.25781 4.77588C9.0609 4.97279 8.9502 5.23959 8.9502 5.51807V7.51807C8.9502 7.79654 9.0609 8.06334 9.25781 8.26025C9.45473 8.45717 9.72152 8.56787 10 8.56787H12C12.2785 8.56787 12.5453 8.45717 12.7422 8.26025C12.9391 8.06334 13.0498 7.79654 13.0498 7.51807V4.46826H10ZM14.9502 7.51807C14.9502 7.79654 15.0609 8.06334 15.2578 8.26025C15.4547 8.45717 15.7215 8.56787 16 8.56787H18C18.2785 8.56787 18.5453 8.45717 18.7422 8.26025C18.9391 8.06334 19.0498 7.79654 19.0498 7.51807V4.46826H14.9502V7.51807ZM20.9502 7.51807C20.9502 7.79654 21.0609 8.06334 21.2578 8.26025C21.4547 8.45717 21.7215 8.56787 22 8.56787H24C24.2785 8.56787 24.5453 8.45717 24.7422 8.26025C24.9391 8.06334 25.0498 7.79654 25.0498 7.51807V5.51807C25.0498 5.23959 24.9391 4.97279 24.7422 4.77588C24.5453 4.57897 24.2785 4.46826 24 4.46826H20.9502V7.51807Z" fill="#1C573E" stroke="white" stroke-width="0.1"/>
<path d="M9.26367 39.6865H6.22852V39.1709L6.91406 39.124C6.99609 39.1162 7.05859 39.085 7.10156 39.0303C7.14453 38.9756 7.16602 38.9189 7.16602 38.8604V35.7607H3.2168V38.8604C3.2168 38.9189 3.23633 38.9756 3.27539 39.0303C3.31836 39.085 3.38281 39.1162 3.46875 39.124L4.1543 39.1709V39.6865H1.11914V39.1709L1.74023 39.124C1.82617 39.1162 1.89062 39.085 1.93359 39.0303C1.98047 38.9756 2.00391 38.9189 2.00391 38.8604V32.4619C2.00391 32.4033 1.98047 32.3486 1.93359 32.2979C1.89062 32.2432 1.82617 32.2139 1.74023 32.21L1.11914 32.1631V31.6357H4.1543V32.1631L3.46875 32.21C3.38281 32.2139 3.31836 32.2432 3.27539 32.2979C3.23633 32.3486 3.2168 32.4033 3.2168 32.4619V35.1631H7.16602V32.4619C7.16602 32.4033 7.14453 32.3486 7.10156 32.2979C7.05859 32.2432 6.99609 32.2139 6.91406 32.21L6.22852 32.1631V31.6357H9.26367V32.1631L8.64258 32.21C8.55664 32.2139 8.49023 32.2432 8.44336 32.2979C8.40039 32.3486 8.37891 32.4033 8.37891 32.4619V38.8604C8.37891 38.9189 8.40039 38.9756 8.44336 39.0303C8.49023 39.085 8.55664 39.1162 8.64258 39.124L9.26367 39.1709V39.6865ZM15.7676 36.8037C15.7676 37.3701 15.6504 37.8838 15.416 38.3447C15.1816 38.8018 14.8496 39.165 14.4199 39.4346C13.9941 39.7002 13.4883 39.833 12.9023 39.833C12.3203 39.833 11.8164 39.7002 11.3906 39.4346C10.9648 39.1689 10.6367 38.8076 10.4062 38.3506C10.1758 37.8936 10.0605 37.3779 10.0605 36.8037C10.0605 36.2334 10.1758 35.7178 10.4062 35.2568C10.6406 34.7959 10.9727 34.4307 11.4023 34.1611C11.8359 33.8916 12.3477 33.7568 12.9375 33.7568C13.5352 33.7568 14.0449 33.8936 14.4668 34.167C14.8887 34.4404 15.2109 34.8076 15.4336 35.2686C15.6562 35.7295 15.7676 36.2412 15.7676 36.8037ZM14.5195 36.792C14.5195 36.3545 14.4609 35.9463 14.3438 35.5674C14.2305 35.1885 14.0547 34.8818 13.8164 34.6475C13.582 34.4131 13.2852 34.2959 12.9258 34.2959C12.5547 34.2959 12.25 34.4131 12.0117 34.6475C11.7773 34.8818 11.6035 35.1885 11.4902 35.5674C11.377 35.9463 11.3203 36.3545 11.3203 36.792C11.3203 37.2256 11.377 37.6338 11.4902 38.0166C11.6074 38.3955 11.7832 38.7021 12.0176 38.9365C12.2559 39.1709 12.5547 39.2881 12.9141 39.2881C13.2812 39.2881 13.582 39.1709 13.8164 38.9365C14.0547 38.7021 14.2305 38.3955 14.3438 38.0166C14.4609 37.6377 14.5195 37.2295 14.5195 36.792ZM26.1152 39.6865H23.4258V39.2178L23.9297 39.1826C24.0977 39.1709 24.1816 39.083 24.1816 38.9189V35.8604C24.1816 35.4893 24.1035 35.1924 23.9473 34.9697C23.7949 34.7471 23.5176 34.6357 23.1152 34.6357C22.916 34.6357 22.6973 34.667 22.459 34.7295C22.2246 34.792 22.0156 34.8721 21.832 34.9697V38.9189C21.832 39.083 21.916 39.1709 22.084 39.1826L22.5879 39.2178V39.6865H19.957V39.2178L20.4609 39.1826C20.6289 39.1709 20.7129 39.083 20.7129 38.9189V35.7842C20.7129 35.4443 20.6328 35.1689 20.4727 34.958C20.3125 34.7432 20.041 34.6357 19.6582 34.6357C19.4316 34.6357 19.1953 34.6748 18.9492 34.7529C18.7031 34.8271 18.5117 34.9033 18.375 34.9814V38.9189C18.375 39.083 18.459 39.1709 18.627 39.1826L19.1309 39.2178V39.6865H16.418V39.2178L17.0039 39.1826C17.1719 39.1709 17.2559 39.083 17.2559 38.9189V34.7529H16.4297V34.3604L17.8828 33.9033H18.375V34.501C18.5547 34.3916 18.7559 34.2803 18.9785 34.167C19.2051 34.0537 19.4355 33.958 19.6699 33.8799C19.9043 33.7979 20.125 33.7568 20.332 33.7568C20.6797 33.7568 20.9609 33.8467 21.1758 34.0264C21.3906 34.2021 21.5488 34.3896 21.6504 34.5889C21.8105 34.4873 22.0137 34.3721 22.2598 34.2432C22.5059 34.1104 22.7598 33.9971 23.0215 33.9033C23.2871 33.8057 23.5254 33.7568 23.7363 33.7568C24.1582 33.7568 24.4805 33.8545 24.7031 34.0498C24.9258 34.2412 25.0781 34.4795 25.1602 34.7646C25.2422 35.0459 25.2832 35.3232 25.2832 35.5967V38.9189C25.2832 38.9932 25.3066 39.0537 25.3535 39.1006C25.4043 39.1475 25.4648 39.1748 25.5352 39.1826L26.1152 39.2178V39.6865ZM31.8574 39.0889C31.5215 39.2959 31.1582 39.4717 30.7676 39.6162C30.3809 39.7607 29.9844 39.833 29.5781 39.833C29.0938 39.833 28.6387 39.7256 28.2129 39.5107C27.791 39.292 27.4492 38.9619 27.1875 38.5205C26.9258 38.0791 26.7949 37.5244 26.7949 36.8564C26.7949 36.2314 26.916 35.6865 27.1582 35.2217C27.4004 34.7568 27.7344 34.3975 28.1602 34.1436C28.5859 33.8857 29.0703 33.7568 29.6133 33.7568C30.3594 33.7568 30.9199 33.9893 31.2949 34.4541C31.6699 34.915 31.8574 35.5029 31.8574 36.2178C31.8574 36.2568 31.8574 36.3096 31.8574 36.376C31.8574 36.4385 31.8535 36.4971 31.8457 36.5518H27.9551C27.9551 36.8564 27.9863 37.1611 28.0488 37.4658C28.1152 37.7666 28.2246 38.04 28.377 38.2861C28.5293 38.5322 28.7344 38.7295 28.9922 38.8779C29.25 39.0264 29.5723 39.1006 29.959 39.1006C30.3027 39.1006 30.6367 39.0225 30.9609 38.8662C31.2891 38.7061 31.5879 38.5361 31.8574 38.3564V39.0889ZM30.6562 36.0127V35.749C30.6562 35.3545 30.5605 35.0225 30.3691 34.7529C30.1816 34.4834 29.8887 34.3486 29.4902 34.3486C29.0957 34.3486 28.7598 34.4971 28.4824 34.7939C28.2051 35.0908 28.0508 35.4971 28.0195 36.0127H30.6562Z" fill="#1C573E"/>
</svg>
