<svg width="37" height="40" viewBox="0 0 37 40" fill="none" xmlns="http://www.w3.org/2000/svg">
<path d="M22.5649 14.2376C23.3528 14.2376 24.133 14.0824 24.861 13.7808C25.5889 13.4793 26.2504 13.0374 26.8075 12.4802C27.3647 11.9231 27.8066 11.2616 28.1081 10.5337C28.4097 9.80571 28.5649 9.0255 28.5649 8.23756C28.5649 7.44963 28.4097 6.66942 28.1081 5.94146C27.8066 5.21351 27.3647 4.55207 26.8075 3.99492C26.2504 3.43777 25.5889 2.99581 24.861 2.69429C24.133 2.39276 23.3528 2.23756 22.5649 2.23756C20.9736 2.23756 19.4474 2.8697 18.3222 3.99492C17.197 5.12014 16.5649 6.64627 16.5649 8.23756C16.5649 9.82886 17.197 11.355 18.3222 12.4802C19.4474 13.6054 20.9736 14.2376 22.5649 14.2376ZM28.8849 13.1436L32.4649 16.7236C32.5603 16.8159 32.6364 16.9263 32.6887 17.0483C32.7411 17.1704 32.7685 17.3016 32.7696 17.4344C32.7707 17.5672 32.7453 17.6988 32.6949 17.8217C32.6445 17.9445 32.5702 18.0561 32.4762 18.15C32.3823 18.2438 32.2706 18.318 32.1476 18.3682C32.0247 18.4183 31.893 18.4436 31.7602 18.4423C31.6275 18.4411 31.4963 18.4134 31.3743 18.3609C31.2523 18.3084 31.142 18.2321 31.0499 18.1366L27.4699 14.5566C25.8623 15.8044 23.8397 16.3927 21.8136 16.2018C19.7876 16.0108 17.9105 15.0549 16.5644 13.5286C15.2184 12.0024 14.5045 10.0205 14.5683 7.98649C14.632 5.95247 15.4685 4.01919 16.9075 2.58021C18.3465 1.14123 20.2798 0.304731 22.3138 0.24099C24.3478 0.177248 26.3297 0.89106 27.8559 2.23711C29.3822 3.58317 30.3381 5.46028 30.5291 7.48632C30.72 9.51236 30.1317 11.535 28.8839 13.1426L28.8849 13.1436Z" fill="#181725"/>
<rect x="4.42033" y="0.237061" width="8.85499" height="2.39923" rx="1.19961" fill="#181725"/>
<rect x="4.42033" y="7.67529" width="6.46414" height="2.39923" rx="1.19961" fill="#181725"/>
<rect x="4.42033" y="15.1138" width="8.85499" height="2.39923" rx="1.19961" fill="#181725"/>
<path d="M6.1653 33.4307C6.1653 33.833 6.05592 34.2217 5.83717 34.5967C5.62233 34.9717 5.28053 35.2803 4.81178 35.5225C4.34694 35.7607 3.73756 35.8799 2.98366 35.8799C2.55397 35.8799 2.17897 35.8428 1.85866 35.7686C1.53835 35.6943 1.2903 35.6201 1.11452 35.5459C0.938736 35.4717 0.850845 35.4346 0.850845 35.4346V33.3076H1.6067L1.76491 34.667C1.77272 34.7139 1.79811 34.7646 1.84108 34.8193C1.88405 34.874 1.92506 34.9111 1.96413 34.9307C1.98366 34.9346 2.09694 34.9814 2.30397 35.0713C2.51491 35.1611 2.80592 35.2061 3.17702 35.2061C3.68874 35.2061 4.11061 35.0811 4.44264 34.8311C4.77467 34.5811 4.94069 34.2334 4.94069 33.7881C4.94069 33.5459 4.87233 33.335 4.73561 33.1553C4.6028 32.9717 4.42897 32.8096 4.21413 32.6689C3.99928 32.5283 3.76881 32.4014 3.52272 32.2881C3.28053 32.1709 3.05006 32.0596 2.83131 31.9541C2.50319 31.7979 2.1985 31.6318 1.91725 31.4561C1.636 31.2764 1.40944 31.0557 1.23756 30.7939C1.06569 30.5322 0.979752 30.1982 0.979752 29.792C0.979752 29.3154 1.10085 28.9014 1.34303 28.5498C1.58522 28.1982 1.9153 27.9268 2.33327 27.7354C2.75124 27.54 3.22389 27.4424 3.75124 27.4424C4.18092 27.4424 4.55983 27.4854 4.88795 27.5713C5.21608 27.6533 5.5071 27.7354 5.761 27.8174L5.86647 27.8525V29.7217H5.18092L4.99928 28.5732C4.99147 28.5186 4.96608 28.4795 4.92311 28.4561C4.88405 28.4287 4.84694 28.3975 4.81178 28.3623C4.78053 28.3389 4.68288 28.2881 4.51881 28.21C4.35866 28.1318 4.10866 28.0928 3.76881 28.0928C3.28835 28.0928 2.90944 28.2275 2.6321 28.4971C2.35475 28.7627 2.21608 29.0986 2.21608 29.5049C2.21608 29.8721 2.35866 30.1768 2.64381 30.4189C2.93288 30.6611 3.34694 30.8857 3.886 31.0928C4.61256 31.3662 5.17311 31.6748 5.56764 32.0186C5.96608 32.3584 6.1653 32.8291 6.1653 33.4307ZM12.1126 35.0889C11.7766 35.2959 11.4133 35.4717 11.0227 35.6162C10.636 35.7607 10.2395 35.833 9.83327 35.833C9.34889 35.833 8.89381 35.7256 8.46803 35.5107C8.04616 35.292 7.70436 34.9619 7.44264 34.5205C7.18092 34.0791 7.05006 33.5244 7.05006 32.8564C7.05006 32.2314 7.17116 31.6865 7.41335 31.2217C7.65553 30.7568 7.98952 30.3975 8.4153 30.1436C8.84108 29.8857 9.32545 29.7568 9.86842 29.7568C10.6145 29.7568 11.1751 29.9893 11.5501 30.4541C11.9251 30.915 12.1126 31.5029 12.1126 32.2178C12.1126 32.2568 12.1126 32.3096 12.1126 32.376C12.1126 32.4385 12.1087 32.4971 12.1008 32.5518H8.21022C8.21022 32.8564 8.24147 33.1611 8.30397 33.4658C8.37038 33.7666 8.47975 34.04 8.6321 34.2861C8.78444 34.5322 8.98952 34.7295 9.24733 34.8779C9.50514 35.0264 9.82741 35.1006 10.2141 35.1006C10.5579 35.1006 10.8919 35.0225 11.2161 34.8662C11.5442 34.7061 11.843 34.5361 12.1126 34.3564V35.0889ZM10.9114 32.0127V31.749C10.9114 31.3545 10.8157 31.0225 10.6243 30.7529C10.4368 30.4834 10.1438 30.3486 9.74538 30.3486C9.35085 30.3486 9.01491 30.4971 8.73756 30.7939C8.46022 31.0908 8.30592 31.4971 8.27467 32.0127H10.9114ZM18.429 35.6865H16.6536L16.4954 34.9775C16.4954 34.9775 16.4348 35.0205 16.3137 35.1064C16.1965 35.1924 16.0403 35.292 15.845 35.4053C15.6497 35.5186 15.4329 35.6182 15.1946 35.7041C14.9602 35.79 14.7258 35.833 14.4915 35.833C14.0579 35.833 13.6887 35.6885 13.384 35.3994C13.0833 35.1104 12.9329 34.7139 12.9329 34.21C12.9329 33.9873 12.9719 33.7803 13.0501 33.5889C13.1321 33.3975 13.2923 33.2158 13.5305 33.0439C13.7727 32.8682 14.1301 32.6982 14.6028 32.5342C15.0794 32.3662 15.7102 32.1963 16.4954 32.0244V31.5088C16.4954 30.7197 16.1223 30.3252 15.3762 30.3252C15.1692 30.3252 14.9895 30.3447 14.8372 30.3838C14.6887 30.4229 14.5852 30.4541 14.5266 30.4775V31.5205H13.6536C13.5442 31.5205 13.4426 31.501 13.3489 31.4619C13.2551 31.4189 13.2083 31.3232 13.2083 31.1748C13.2083 30.8467 13.3333 30.5791 13.5833 30.3721C13.8333 30.1611 14.1497 30.0068 14.5325 29.9092C14.9192 29.8076 15.3098 29.7568 15.7044 29.7568C16.2005 29.7568 16.5852 29.835 16.8587 29.9912C17.1321 30.1436 17.3235 30.3564 17.4329 30.6299C17.5423 30.8994 17.5969 31.208 17.5969 31.5557V34.9189C17.5969 34.9932 17.6204 35.0537 17.6673 35.1006C17.718 35.1475 17.7786 35.1748 17.8489 35.1826L18.429 35.2178V35.6865ZM16.4954 34.5557V32.4814C15.9563 32.6143 15.5266 32.749 15.2063 32.8857C14.8899 33.0186 14.6536 33.1533 14.4973 33.29C14.3411 33.4229 14.2376 33.5596 14.1868 33.7002C14.1399 33.8369 14.1165 33.9795 14.1165 34.1279C14.1165 34.374 14.1946 34.6025 14.3508 34.8135C14.511 35.0205 14.7337 35.124 15.0188 35.124C15.179 35.124 15.345 35.0967 15.5169 35.042C15.6887 34.9834 15.8489 34.917 15.9973 34.8428C16.1458 34.7646 16.2649 34.6982 16.3548 34.6436C16.4485 34.585 16.4954 34.5557 16.4954 34.5557ZM23.1985 31.1279H22.7298C22.6555 31.0381 22.5657 30.9619 22.4602 30.8994C22.3587 30.833 22.2337 30.7998 22.0852 30.7998C21.8938 30.7998 21.6965 30.8662 21.4934 30.999C21.2942 31.1318 21.0911 31.3135 20.884 31.5439V34.9189C20.884 35.0869 20.968 35.1748 21.136 35.1826L21.927 35.2178V35.6865H18.927V35.2295L19.5188 35.1826C19.5891 35.1748 19.6477 35.1475 19.6946 35.1006C19.7454 35.0537 19.7708 34.9932 19.7708 34.9189V30.7529H18.9036V30.3604L20.3919 29.9033H20.884V30.9697C21.0012 30.8408 21.1477 30.6807 21.3235 30.4893C21.4993 30.2979 21.6868 30.1279 21.886 29.9795C22.0852 29.8311 22.2786 29.7568 22.4661 29.7568C22.5911 29.7568 22.7258 29.7764 22.8704 29.8154C23.0149 29.8545 23.1243 29.8955 23.1985 29.9385V31.1279ZM28.513 34.5557V35.2412C28.2434 35.3857 27.9387 35.5205 27.5989 35.6455C27.263 35.7705 26.8919 35.833 26.4856 35.833C25.927 35.833 25.4407 35.7021 25.0266 35.4404C24.6165 35.1787 24.2981 34.8232 24.0715 34.374C23.8489 33.9209 23.7376 33.4072 23.7376 32.833C23.7376 32.1611 23.8704 31.5967 24.136 31.1396C24.4055 30.6826 24.759 30.3389 25.1965 30.1084C25.638 29.874 26.1145 29.7568 26.6262 29.7568C27.1536 29.7568 27.595 29.8604 27.9505 30.0674C28.3098 30.2705 28.4895 30.5674 28.4895 30.958C28.4895 31.1924 28.4153 31.3701 28.2669 31.4912C28.1223 31.6084 27.9602 31.667 27.7805 31.667C27.6477 31.667 27.5325 31.6455 27.4348 31.6025C27.3372 31.5557 27.2512 31.5088 27.177 31.4619V30.4189C26.9934 30.3135 26.8255 30.2607 26.6731 30.2607C26.3176 30.2607 26.011 30.3662 25.7532 30.5771C25.4993 30.7842 25.304 31.0693 25.1673 31.4326C25.0305 31.7959 24.9622 32.21 24.9622 32.6748C24.9622 33.1162 25.0364 33.5205 25.1848 33.8877C25.3333 34.251 25.554 34.54 25.8469 34.7549C26.1438 34.9697 26.511 35.0771 26.9485 35.0771C27.2258 35.0771 27.4915 35.0322 27.7454 34.9424C27.9993 34.8525 28.2551 34.7236 28.513 34.5557ZM35.5266 35.6865H32.8548V35.2178L33.3469 35.1826C33.4173 35.1748 33.4778 35.1475 33.5286 35.1006C33.5833 35.0537 33.6106 34.9932 33.6106 34.9189V31.8252C33.6106 31.4814 33.5286 31.1982 33.3645 30.9756C33.2005 30.749 32.886 30.6357 32.4212 30.6357C32.2102 30.6357 31.9817 30.6689 31.7356 30.7354C31.4934 30.8018 31.2864 30.8838 31.1145 30.9814V34.9189C31.1145 35.083 31.1946 35.1709 31.3548 35.1826L31.8704 35.2178V35.6865H29.1692V35.2178L29.7434 35.1826C29.9114 35.1709 29.9954 35.083 29.9954 34.9189V27.7061H29.0989V27.3076L30.634 26.8447H31.1145V30.501C31.259 30.4111 31.4465 30.3096 31.677 30.1963C31.9075 30.0791 32.1497 29.9775 32.4036 29.8916C32.6575 29.8018 32.888 29.7568 33.095 29.7568C33.5559 29.7568 33.9426 29.9053 34.2551 30.2021C34.5676 30.499 34.7239 30.9561 34.7239 31.5732V34.9189C34.7239 34.9932 34.7493 35.0537 34.8001 35.1006C34.8548 35.1475 34.9173 35.1748 34.9876 35.1826L35.5266 35.2178V35.6865Z" fill="#181725"/>
</svg>
